<mxfile host="app.diagrams.net" agent="Mozilla/5.0 (Windows NT 10.0; Win64; x64; rv:136.0) Gecko/20100101 Firefox/136.0" version="26.1.0">
  <diagram name="Page-1" id="2YBvvXClWsGukQMizWep">
    <mxGraphModel dx="1016" dy="1723" grid="1" gridSize="10" guides="1" tooltips="1" connect="1" arrows="1" fold="1" page="1" pageScale="1" pageWidth="850" pageHeight="1100" math="0" shadow="0">
      <root>
        <mxCell id="0" />
        <mxCell id="1" parent="0" />
        <mxCell id="02z2UqMDENTXHO_L2J_l-3" value="" style="rounded=0;whiteSpace=wrap;html=1;" parent="1" vertex="1">
          <mxGeometry x="210" y="70" width="940" height="1740" as="geometry" />
        </mxCell>
        <mxCell id="02z2UqMDENTXHO_L2J_l-143" style="rounded=0;orthogonalLoop=1;jettySize=auto;html=1;endArrow=none;startFill=0;entryX=0;entryY=0.5;entryDx=0;entryDy=0;" parent="1" source="02z2UqMDENTXHO_L2J_l-1" target="02z2UqMDENTXHO_L2J_l-20" edge="1">
          <mxGeometry relative="1" as="geometry" />
        </mxCell>
        <mxCell id="02z2UqMDENTXHO_L2J_l-144" style="edgeStyle=orthogonalEdgeStyle;rounded=0;orthogonalLoop=1;jettySize=auto;html=1;endArrow=none;startFill=0;" parent="1" source="02z2UqMDENTXHO_L2J_l-1" target="02z2UqMDENTXHO_L2J_l-139" edge="1">
          <mxGeometry relative="1" as="geometry" />
        </mxCell>
        <mxCell id="02z2UqMDENTXHO_L2J_l-146" style="rounded=0;orthogonalLoop=1;jettySize=auto;html=1;endArrow=none;startFill=0;entryX=0;entryY=0.5;entryDx=0;entryDy=0;" parent="1" source="02z2UqMDENTXHO_L2J_l-1" target="02z2UqMDENTXHO_L2J_l-140" edge="1">
          <mxGeometry relative="1" as="geometry" />
        </mxCell>
        <mxCell id="02z2UqMDENTXHO_L2J_l-153" style="rounded=0;orthogonalLoop=1;jettySize=auto;html=1;endArrow=none;startFill=0;entryX=0;entryY=0.5;entryDx=0;entryDy=0;" parent="1" source="02z2UqMDENTXHO_L2J_l-1" target="02z2UqMDENTXHO_L2J_l-147" edge="1">
          <mxGeometry relative="1" as="geometry" />
        </mxCell>
        <mxCell id="02z2UqMDENTXHO_L2J_l-1" value="Lab Manager" style="shape=umlActor;verticalLabelPosition=bottom;verticalAlign=top;html=1;" parent="1" vertex="1">
          <mxGeometry x="120" y="290" width="30" height="60" as="geometry" />
        </mxCell>
        <mxCell id="02z2UqMDENTXHO_L2J_l-157" style="edgeStyle=orthogonalEdgeStyle;rounded=0;orthogonalLoop=1;jettySize=auto;html=1;" parent="1" source="02z2UqMDENTXHO_L2J_l-2" edge="1">
          <mxGeometry relative="1" as="geometry">
            <mxPoint x="135" y="370" as="targetPoint" />
          </mxGeometry>
        </mxCell>
        <mxCell id="02z2UqMDENTXHO_L2J_l-163" style="rounded=0;orthogonalLoop=1;jettySize=auto;html=1;endArrow=none;startFill=0;" parent="1" source="02z2UqMDENTXHO_L2J_l-2" target="02z2UqMDENTXHO_L2J_l-158" edge="1">
          <mxGeometry relative="1" as="geometry" />
        </mxCell>
        <mxCell id="02z2UqMDENTXHO_L2J_l-164" style="rounded=0;orthogonalLoop=1;jettySize=auto;html=1;endArrow=none;startFill=0;entryX=0;entryY=0.5;entryDx=0;entryDy=0;" parent="1" source="02z2UqMDENTXHO_L2J_l-2" target="02z2UqMDENTXHO_L2J_l-159" edge="1">
          <mxGeometry relative="1" as="geometry" />
        </mxCell>
        <mxCell id="02z2UqMDENTXHO_L2J_l-2" value="Reearchers&amp;nbsp;" style="shape=umlActor;verticalLabelPosition=bottom;verticalAlign=top;html=1;" parent="1" vertex="1">
          <mxGeometry x="120" y="1120" width="30" height="60" as="geometry" />
        </mxCell>
        <mxCell id="02z2UqMDENTXHO_L2J_l-9" value="Tracking Chemical/Lab Consumbles Inventory&amp;nbsp;Subsystem&amp;nbsp;" style="text;html=1;align=center;verticalAlign=middle;whiteSpace=wrap;rounded=0;fontSize=19;" parent="1" vertex="1">
          <mxGeometry x="395" y="30" width="440" height="50" as="geometry" />
        </mxCell>
        <mxCell id="02z2UqMDENTXHO_L2J_l-20" value="Add Chemical" style="ellipse;whiteSpace=wrap;html=1;" parent="1" vertex="1">
          <mxGeometry x="445" y="130" width="130" height="70" as="geometry" />
        </mxCell>
        <mxCell id="02z2UqMDENTXHO_L2J_l-136" style="rounded=0;orthogonalLoop=1;jettySize=auto;html=1;dashed=1;" parent="1" source="02z2UqMDENTXHO_L2J_l-131" target="02z2UqMDENTXHO_L2J_l-20" edge="1">
          <mxGeometry relative="1" as="geometry" />
        </mxCell>
        <mxCell id="02z2UqMDENTXHO_L2J_l-141" value="&amp;lt;&amp;lt;includes&amp;gt;&amp;gt;" style="edgeLabel;html=1;align=center;verticalAlign=middle;resizable=0;points=[];" parent="02z2UqMDENTXHO_L2J_l-136" vertex="1" connectable="0">
          <mxGeometry x="0.1822" relative="1" as="geometry">
            <mxPoint x="15" y="-3" as="offset" />
          </mxGeometry>
        </mxCell>
        <mxCell id="02z2UqMDENTXHO_L2J_l-131" value="Update Stock Lovels" style="ellipse;whiteSpace=wrap;html=1;" parent="1" vertex="1">
          <mxGeometry x="710" y="80" width="140" height="70" as="geometry" />
        </mxCell>
        <mxCell id="02z2UqMDENTXHO_L2J_l-132" value="Locate Chemical" style="ellipse;whiteSpace=wrap;html=1;" parent="1" vertex="1">
          <mxGeometry x="710" y="180" width="140" height="70" as="geometry" />
        </mxCell>
        <mxCell id="02z2UqMDENTXHO_L2J_l-137" style="rounded=0;orthogonalLoop=1;jettySize=auto;html=1;dashed=1;exitX=0;exitY=0.5;exitDx=0;exitDy=0;" parent="1" source="02z2UqMDENTXHO_L2J_l-132" target="02z2UqMDENTXHO_L2J_l-20" edge="1">
          <mxGeometry relative="1" as="geometry">
            <mxPoint x="700" y="215" as="sourcePoint" />
            <mxPoint x="510" y="244" as="targetPoint" />
          </mxGeometry>
        </mxCell>
        <mxCell id="02z2UqMDENTXHO_L2J_l-142" value="&amp;lt;&amp;lt;includes&amp;gt;&amp;gt;" style="edgeLabel;html=1;align=center;verticalAlign=middle;resizable=0;points=[];" parent="02z2UqMDENTXHO_L2J_l-137" vertex="1" connectable="0">
          <mxGeometry x="0.2002" relative="1" as="geometry">
            <mxPoint x="22" y="2" as="offset" />
          </mxGeometry>
        </mxCell>
        <mxCell id="02z2UqMDENTXHO_L2J_l-155" value="" style="edgeStyle=orthogonalEdgeStyle;rounded=0;orthogonalLoop=1;jettySize=auto;html=1;endArrow=none;startFill=1;startArrow=classic;dashed=1;" parent="1" source="02z2UqMDENTXHO_L2J_l-139" target="02z2UqMDENTXHO_L2J_l-154" edge="1">
          <mxGeometry relative="1" as="geometry" />
        </mxCell>
        <mxCell id="02z2UqMDENTXHO_L2J_l-156" value="&amp;lt;&amp;lt;extends&amp;gt;&amp;gt;" style="edgeLabel;html=1;align=center;verticalAlign=middle;resizable=0;points=[];" parent="02z2UqMDENTXHO_L2J_l-155" vertex="1" connectable="0">
          <mxGeometry x="-0.035" y="-2" relative="1" as="geometry">
            <mxPoint as="offset" />
          </mxGeometry>
        </mxCell>
        <mxCell id="02z2UqMDENTXHO_L2J_l-139" value="Remove Chemical" style="ellipse;whiteSpace=wrap;html=1;" parent="1" vertex="1">
          <mxGeometry x="445" y="285" width="130" height="70" as="geometry" />
        </mxCell>
        <mxCell id="02z2UqMDENTXHO_L2J_l-140" value="View Inventory" style="ellipse;whiteSpace=wrap;html=1;" parent="1" vertex="1">
          <mxGeometry x="445" y="390" width="130" height="70" as="geometry" />
        </mxCell>
        <mxCell id="02z2UqMDENTXHO_L2J_l-147" value="Categorize Chemicals&amp;nbsp;" style="ellipse;whiteSpace=wrap;html=1;" parent="1" vertex="1">
          <mxGeometry x="440" y="490" width="130" height="70" as="geometry" />
        </mxCell>
        <mxCell id="02z2UqMDENTXHO_L2J_l-148" value="" style="shape=note;whiteSpace=wrap;html=1;backgroundOutline=1;darkOpacity=0.05;" parent="1" vertex="1">
          <mxGeometry x="840" y="480" width="160" height="90" as="geometry" />
        </mxCell>
        <mxCell id="02z2UqMDENTXHO_L2J_l-149" value="Identify which&amp;nbsp; chemicals are solvents, salts, inorganic, organic&amp;nbsp;" style="text;html=1;align=center;verticalAlign=middle;whiteSpace=wrap;rounded=0;" parent="1" vertex="1">
          <mxGeometry x="860" y="485" width="120" height="80" as="geometry" />
        </mxCell>
        <mxCell id="02z2UqMDENTXHO_L2J_l-150" value="Track Location" style="ellipse;whiteSpace=wrap;html=1;" parent="1" vertex="1">
          <mxGeometry x="440" y="590" width="130" height="70" as="geometry" />
        </mxCell>
        <mxCell id="02z2UqMDENTXHO_L2J_l-151" value="" style="shape=note;whiteSpace=wrap;html=1;backgroundOutline=1;darkOpacity=0.05;" parent="1" vertex="1">
          <mxGeometry x="610" y="570" width="160" height="90" as="geometry" />
        </mxCell>
        <mxCell id="02z2UqMDENTXHO_L2J_l-152" value="Store room, main lab and lockers&amp;nbsp;" style="text;html=1;align=center;verticalAlign=middle;whiteSpace=wrap;rounded=0;" parent="1" vertex="1">
          <mxGeometry x="620" y="575" width="120" height="80" as="geometry" />
        </mxCell>
        <mxCell id="02z2UqMDENTXHO_L2J_l-154" value="Mark Empty&amp;nbsp;" style="ellipse;whiteSpace=wrap;html=1;" parent="1" vertex="1">
          <mxGeometry x="710" y="285" width="130" height="70" as="geometry" />
        </mxCell>
        <mxCell id="02z2UqMDENTXHO_L2J_l-158" value="Select Chemicals&amp;nbsp;" style="ellipse;whiteSpace=wrap;html=1;" parent="1" vertex="1">
          <mxGeometry x="500" y="990" width="130" height="70" as="geometry" />
        </mxCell>
        <mxCell id="02z2UqMDENTXHO_L2J_l-159" value="Add Chemicals&amp;nbsp;" style="ellipse;whiteSpace=wrap;html=1;" parent="1" vertex="1">
          <mxGeometry x="500" y="1120" width="130" height="70" as="geometry" />
        </mxCell>
        <mxCell id="02z2UqMDENTXHO_L2J_l-167" style="rounded=0;orthogonalLoop=1;jettySize=auto;html=1;entryX=1;entryY=0.5;entryDx=0;entryDy=0;dashed=1;" parent="1" source="02z2UqMDENTXHO_L2J_l-160" target="02z2UqMDENTXHO_L2J_l-158" edge="1">
          <mxGeometry relative="1" as="geometry" />
        </mxCell>
        <mxCell id="02z2UqMDENTXHO_L2J_l-160" value="Record Quantity" style="ellipse;whiteSpace=wrap;html=1;" parent="1" vertex="1">
          <mxGeometry x="750" y="940" width="130" height="70" as="geometry" />
        </mxCell>
        <mxCell id="02z2UqMDENTXHO_L2J_l-161" value="Record Date/Time" style="ellipse;whiteSpace=wrap;html=1;" parent="1" vertex="1">
          <mxGeometry x="750" y="1030" width="130" height="70" as="geometry" />
        </mxCell>
        <mxCell id="02z2UqMDENTXHO_L2J_l-165" style="rounded=0;orthogonalLoop=1;jettySize=auto;html=1;entryX=1;entryY=1;entryDx=0;entryDy=0;exitX=0;exitY=0.5;exitDx=0;exitDy=0;dashed=1;" parent="1" source="02z2UqMDENTXHO_L2J_l-161" target="02z2UqMDENTXHO_L2J_l-158" edge="1">
          <mxGeometry relative="1" as="geometry" />
        </mxCell>
        <mxCell id="02z2UqMDENTXHO_L2J_l-166" value="&amp;lt;&amp;lt;includes&amp;gt;&amp;gt;" style="edgeLabel;html=1;align=center;verticalAlign=middle;resizable=0;points=[];" parent="02z2UqMDENTXHO_L2J_l-165" vertex="1" connectable="0">
          <mxGeometry x="0.3307" y="3" relative="1" as="geometry">
            <mxPoint x="31" y="9" as="offset" />
          </mxGeometry>
        </mxCell>
        <mxCell id="02z2UqMDENTXHO_L2J_l-168" value="&amp;lt;&amp;lt;includes&amp;gt;&amp;gt;" style="edgeLabel;html=1;align=center;verticalAlign=middle;resizable=0;points=[];" parent="02z2UqMDENTXHO_L2J_l-165" vertex="1" connectable="0">
          <mxGeometry x="0.3307" y="3" relative="1" as="geometry">
            <mxPoint x="41" y="-51" as="offset" />
          </mxGeometry>
        </mxCell>
        <mxCell id="02z2UqMDENTXHO_L2J_l-172" style="rounded=0;orthogonalLoop=1;jettySize=auto;html=1;exitX=0;exitY=0.5;exitDx=0;exitDy=0;endArrow=none;startFill=0;" parent="1" source="02z2UqMDENTXHO_L2J_l-169" target="02z2UqMDENTXHO_L2J_l-2" edge="1">
          <mxGeometry relative="1" as="geometry" />
        </mxCell>
        <mxCell id="02z2UqMDENTXHO_L2J_l-169" value="View Locker Inventory" style="ellipse;whiteSpace=wrap;html=1;" parent="1" vertex="1">
          <mxGeometry x="500" y="1200" width="130" height="70" as="geometry" />
        </mxCell>
        <mxCell id="02z2UqMDENTXHO_L2J_l-170" value="Update Locker Inventory" style="ellipse;whiteSpace=wrap;html=1;" parent="1" vertex="1">
          <mxGeometry x="500" y="1290" width="130" height="70" as="geometry" />
        </mxCell>
        <mxCell id="02z2UqMDENTXHO_L2J_l-174" style="rounded=0;orthogonalLoop=1;jettySize=auto;html=1;exitX=0;exitY=0.5;exitDx=0;exitDy=0;endArrow=none;startFill=0;entryX=0.413;entryY=0.86;entryDx=0;entryDy=0;entryPerimeter=0;" parent="1" source="02z2UqMDENTXHO_L2J_l-171" target="02z2UqMDENTXHO_L2J_l-2" edge="1">
          <mxGeometry relative="1" as="geometry" />
        </mxCell>
        <mxCell id="02z2UqMDENTXHO_L2J_l-171" value="Share Locker Inventory" style="ellipse;whiteSpace=wrap;html=1;" parent="1" vertex="1">
          <mxGeometry x="500" y="1390" width="125" height="70" as="geometry" />
        </mxCell>
        <mxCell id="02z2UqMDENTXHO_L2J_l-173" style="rounded=0;orthogonalLoop=1;jettySize=auto;html=1;entryX=0.573;entryY=0.7;entryDx=0;entryDy=0;entryPerimeter=0;endArrow=none;startFill=0;exitX=0;exitY=0.5;exitDx=0;exitDy=0;" parent="1" source="02z2UqMDENTXHO_L2J_l-170" target="02z2UqMDENTXHO_L2J_l-2" edge="1">
          <mxGeometry relative="1" as="geometry" />
        </mxCell>
        <mxCell id="02z2UqMDENTXHO_L2J_l-175" value="" style="shape=note;whiteSpace=wrap;html=1;backgroundOutline=1;darkOpacity=0.05;" parent="1" vertex="1">
          <mxGeometry x="660" y="1190" width="160" height="90" as="geometry" />
        </mxCell>
        <mxCell id="02z2UqMDENTXHO_L2J_l-176" value="Whys is selecting different from adding? How to show that?" style="text;html=1;align=center;verticalAlign=middle;whiteSpace=wrap;rounded=0;" parent="1" vertex="1">
          <mxGeometry x="680" y="1190" width="120" height="80" as="geometry" />
        </mxCell>
        <mxCell id="02z2UqMDENTXHO_L2J_l-183" value="" style="rounded=0;whiteSpace=wrap;html=1;" parent="1" vertex="1">
          <mxGeometry x="2295" y="-10" width="490" height="150" as="geometry" />
        </mxCell>
        <mxCell id="02z2UqMDENTXHO_L2J_l-184" value="SigmaAldrich" style="text;html=1;align=center;verticalAlign=middle;whiteSpace=wrap;rounded=0;fontSize=19;" parent="1" vertex="1">
          <mxGeometry x="2420" width="240" height="30" as="geometry" />
        </mxCell>
        <mxCell id="poZD9N2d5XFR-r68YqAx-190" value="Lab Manager" style="shape=umlActor;verticalLabelPosition=bottom;verticalAlign=top;html=1;outlineConnect=0;" vertex="1" parent="1">
          <mxGeometry x="1420" y="660" width="30" height="60" as="geometry" />
        </mxCell>
        <mxCell id="poZD9N2d5XFR-r68YqAx-191" value="" style="rounded=0;whiteSpace=wrap;html=1;" vertex="1" parent="1">
          <mxGeometry x="1630" width="590" height="1610" as="geometry" />
        </mxCell>
        <mxCell id="poZD9N2d5XFR-r68YqAx-192" value="Purchase Order Sub System" style="text;html=1;align=center;verticalAlign=middle;whiteSpace=wrap;rounded=0;fontSize=19;" vertex="1" parent="1">
          <mxGeometry x="1790" y="10" width="262.5" height="30" as="geometry" />
        </mxCell>
        <mxCell id="poZD9N2d5XFR-r68YqAx-193" value="Supplier" style="shape=umlActor;verticalLabelPosition=bottom;verticalAlign=top;html=1;outlineConnect=0;" vertex="1" parent="1">
          <mxGeometry x="1480" y="1520" width="30" height="60" as="geometry" />
        </mxCell>
        <mxCell id="poZD9N2d5XFR-r68YqAx-194" value="Create Purchase Order" style="ellipse;whiteSpace=wrap;html=1;" vertex="1" parent="1">
          <mxGeometry x="1690" y="230" width="140" height="70" as="geometry" />
        </mxCell>
        <mxCell id="poZD9N2d5XFR-r68YqAx-195" value="Access Purchase Orders" style="ellipse;whiteSpace=wrap;html=1;" vertex="1" parent="1">
          <mxGeometry x="1865" y="70" width="140" height="70" as="geometry" />
        </mxCell>
        <mxCell id="poZD9N2d5XFR-r68YqAx-196" value="Select Supplier" style="ellipse;whiteSpace=wrap;html=1;" vertex="1" parent="1">
          <mxGeometry x="1865" y="320" width="140" height="70" as="geometry" />
        </mxCell>
        <mxCell id="poZD9N2d5XFR-r68YqAx-197" value="View Items List" style="ellipse;whiteSpace=wrap;html=1;" vertex="1" parent="1">
          <mxGeometry x="2060" y="490" width="140" height="70" as="geometry" />
        </mxCell>
        <mxCell id="poZD9N2d5XFR-r68YqAx-198" value="Select Item" style="ellipse;whiteSpace=wrap;html=1;" vertex="1" parent="1">
          <mxGeometry x="1865" y="560" width="140" height="70" as="geometry" />
        </mxCell>
        <mxCell id="poZD9N2d5XFR-r68YqAx-199" value="View Suppliers List" style="ellipse;whiteSpace=wrap;html=1;" vertex="1" parent="1">
          <mxGeometry x="2060" y="250" width="140" height="70" as="geometry" />
        </mxCell>
        <mxCell id="poZD9N2d5XFR-r68YqAx-200" value="Create New Supplier" style="ellipse;whiteSpace=wrap;html=1;" vertex="1" parent="1">
          <mxGeometry x="2060" y="390" width="140" height="70" as="geometry" />
        </mxCell>
        <mxCell id="poZD9N2d5XFR-r68YqAx-201" value="Enter Item Quantity" style="ellipse;whiteSpace=wrap;html=1;" vertex="1" parent="1">
          <mxGeometry x="1880" y="850" width="140" height="70" as="geometry" />
        </mxCell>
        <mxCell id="poZD9N2d5XFR-r68YqAx-202" value="Enter Item Price" style="ellipse;whiteSpace=wrap;html=1;" vertex="1" parent="1">
          <mxGeometry x="1780" y="750" width="140" height="70" as="geometry" />
        </mxCell>
        <mxCell id="poZD9N2d5XFR-r68YqAx-203" value="Display Purchase Order&amp;nbsp;" style="ellipse;whiteSpace=wrap;html=1;" vertex="1" parent="1">
          <mxGeometry x="1865" y="970" width="140" height="70" as="geometry" />
        </mxCell>
        <mxCell id="poZD9N2d5XFR-r68YqAx-204" value="Update Purchase Order" style="ellipse;whiteSpace=wrap;html=1;" vertex="1" parent="1">
          <mxGeometry x="1795" y="1150" width="140" height="70" as="geometry" />
        </mxCell>
        <mxCell id="poZD9N2d5XFR-r68YqAx-205" value="Set Payment Terms, Delivery Conditions" style="ellipse;whiteSpace=wrap;html=1;" vertex="1" parent="1">
          <mxGeometry x="1725" y="490" width="140" height="70" as="geometry" />
        </mxCell>
        <mxCell id="poZD9N2d5XFR-r68YqAx-206" value="Save Purchase Order" style="ellipse;whiteSpace=wrap;html=1;" vertex="1" parent="1">
          <mxGeometry x="1980" y="1230" width="140" height="70" as="geometry" />
        </mxCell>
        <mxCell id="poZD9N2d5XFR-r68YqAx-207" value="Send Purchase Order" style="ellipse;whiteSpace=wrap;html=1;" vertex="1" parent="1">
          <mxGeometry x="1980" y="1370" width="140" height="70" as="geometry" />
        </mxCell>
        <mxCell id="poZD9N2d5XFR-r68YqAx-208" value="Purchase Order Confirmation" style="ellipse;whiteSpace=wrap;html=1;" vertex="1" parent="1">
          <mxGeometry x="1980" y="1510" width="140" height="70" as="geometry" />
        </mxCell>
        <mxCell id="poZD9N2d5XFR-r68YqAx-209" value="Create New Item" style="ellipse;whiteSpace=wrap;html=1;" vertex="1" parent="1">
          <mxGeometry x="2060" y="630" width="140" height="70" as="geometry" />
        </mxCell>
        <mxCell id="poZD9N2d5XFR-r68YqAx-210" value="" style="endArrow=classic;html=1;rounded=0;exitX=0.5;exitY=0;exitDx=0;exitDy=0;entryX=0.5;entryY=1;entryDx=0;entryDy=0;dashed=1;" edge="1" parent="1" source="poZD9N2d5XFR-r68YqAx-194" target="poZD9N2d5XFR-r68YqAx-195">
          <mxGeometry width="50" height="50" relative="1" as="geometry">
            <mxPoint x="1940" y="170" as="sourcePoint" />
            <mxPoint x="1990" y="120" as="targetPoint" />
          </mxGeometry>
        </mxCell>
        <mxCell id="poZD9N2d5XFR-r68YqAx-211" value="&amp;lt;&amp;lt;includes&amp;gt;&amp;gt;" style="edgeLabel;html=1;align=center;verticalAlign=middle;resizable=0;points=[];" vertex="1" connectable="0" parent="poZD9N2d5XFR-r68YqAx-210">
          <mxGeometry x="-0.04" relative="1" as="geometry">
            <mxPoint as="offset" />
          </mxGeometry>
        </mxCell>
        <mxCell id="poZD9N2d5XFR-r68YqAx-212" value="" style="endArrow=classic;html=1;rounded=0;exitX=1;exitY=0;exitDx=0;exitDy=0;entryX=0;entryY=0.5;entryDx=0;entryDy=0;dashed=1;" edge="1" parent="1" source="poZD9N2d5XFR-r68YqAx-196" target="poZD9N2d5XFR-r68YqAx-199">
          <mxGeometry width="50" height="50" relative="1" as="geometry">
            <mxPoint x="1790" y="540" as="sourcePoint" />
            <mxPoint x="1840" y="490" as="targetPoint" />
          </mxGeometry>
        </mxCell>
        <mxCell id="poZD9N2d5XFR-r68YqAx-213" value="&amp;lt;&amp;lt;includes&amp;gt;&amp;gt;" style="edgeLabel;html=1;align=center;verticalAlign=middle;resizable=0;points=[];" vertex="1" connectable="0" parent="poZD9N2d5XFR-r68YqAx-212">
          <mxGeometry x="-0.1464" y="-2" relative="1" as="geometry">
            <mxPoint x="-1" as="offset" />
          </mxGeometry>
        </mxCell>
        <mxCell id="poZD9N2d5XFR-r68YqAx-214" value="" style="endArrow=classic;html=1;rounded=0;exitX=1;exitY=1;exitDx=0;exitDy=0;entryX=0;entryY=0.5;entryDx=0;entryDy=0;dashed=1;" edge="1" parent="1" source="poZD9N2d5XFR-r68YqAx-196" target="poZD9N2d5XFR-r68YqAx-200">
          <mxGeometry width="50" height="50" relative="1" as="geometry">
            <mxPoint x="1790" y="540" as="sourcePoint" />
            <mxPoint x="1840" y="490" as="targetPoint" />
          </mxGeometry>
        </mxCell>
        <mxCell id="poZD9N2d5XFR-r68YqAx-215" value="&amp;lt;&amp;lt;extends&amp;gt;&amp;gt;" style="edgeLabel;html=1;align=center;verticalAlign=middle;resizable=0;points=[];" vertex="1" connectable="0" parent="poZD9N2d5XFR-r68YqAx-214">
          <mxGeometry x="-0.1098" y="-3" relative="1" as="geometry">
            <mxPoint as="offset" />
          </mxGeometry>
        </mxCell>
        <mxCell id="poZD9N2d5XFR-r68YqAx-216" value="" style="endArrow=classic;html=1;rounded=0;exitX=1;exitY=0;exitDx=0;exitDy=0;entryX=0;entryY=0.5;entryDx=0;entryDy=0;dashed=1;" edge="1" parent="1" source="poZD9N2d5XFR-r68YqAx-198" target="poZD9N2d5XFR-r68YqAx-197">
          <mxGeometry width="50" height="50" relative="1" as="geometry">
            <mxPoint x="2020" y="690" as="sourcePoint" />
            <mxPoint x="2070" y="640" as="targetPoint" />
          </mxGeometry>
        </mxCell>
        <mxCell id="poZD9N2d5XFR-r68YqAx-217" value="&amp;lt;&amp;lt;includes&amp;gt;&amp;gt;" style="edgeLabel;html=1;align=center;verticalAlign=middle;resizable=0;points=[];" vertex="1" connectable="0" parent="poZD9N2d5XFR-r68YqAx-216">
          <mxGeometry x="0.0406" relative="1" as="geometry">
            <mxPoint as="offset" />
          </mxGeometry>
        </mxCell>
        <mxCell id="poZD9N2d5XFR-r68YqAx-218" value="" style="endArrow=classic;html=1;rounded=0;exitX=1;exitY=1;exitDx=0;exitDy=0;entryX=0;entryY=0.5;entryDx=0;entryDy=0;dashed=1;" edge="1" parent="1" source="poZD9N2d5XFR-r68YqAx-198" target="poZD9N2d5XFR-r68YqAx-209">
          <mxGeometry width="50" height="50" relative="1" as="geometry">
            <mxPoint x="2020" y="690" as="sourcePoint" />
            <mxPoint x="2070" y="640" as="targetPoint" />
          </mxGeometry>
        </mxCell>
        <mxCell id="poZD9N2d5XFR-r68YqAx-219" value="&amp;lt;&amp;lt;extends&amp;gt;&amp;gt;" style="edgeLabel;html=1;align=center;verticalAlign=middle;resizable=0;points=[];" vertex="1" connectable="0" parent="poZD9N2d5XFR-r68YqAx-218">
          <mxGeometry x="-0.0916" relative="1" as="geometry">
            <mxPoint as="offset" />
          </mxGeometry>
        </mxCell>
        <mxCell id="poZD9N2d5XFR-r68YqAx-220" value="" style="endArrow=classic;html=1;rounded=0;exitX=0.5;exitY=0;exitDx=0;exitDy=0;entryX=0;entryY=1;entryDx=0;entryDy=0;dashed=1;" edge="1" parent="1" source="poZD9N2d5XFR-r68YqAx-202" target="poZD9N2d5XFR-r68YqAx-198">
          <mxGeometry width="50" height="50" relative="1" as="geometry">
            <mxPoint x="2020" y="820" as="sourcePoint" />
            <mxPoint x="2070" y="770" as="targetPoint" />
          </mxGeometry>
        </mxCell>
        <mxCell id="poZD9N2d5XFR-r68YqAx-221" value="&amp;lt;&amp;lt;includes&amp;gt;&amp;gt;" style="edgeLabel;html=1;align=center;verticalAlign=middle;resizable=0;points=[];" vertex="1" connectable="0" parent="poZD9N2d5XFR-r68YqAx-220">
          <mxGeometry x="-0.0853" y="-1" relative="1" as="geometry">
            <mxPoint as="offset" />
          </mxGeometry>
        </mxCell>
        <mxCell id="poZD9N2d5XFR-r68YqAx-222" value="" style="endArrow=classic;html=1;rounded=0;exitX=0.5;exitY=0;exitDx=0;exitDy=0;entryX=0.5;entryY=1;entryDx=0;entryDy=0;dashed=1;" edge="1" parent="1" source="poZD9N2d5XFR-r68YqAx-201" target="poZD9N2d5XFR-r68YqAx-198">
          <mxGeometry width="50" height="50" relative="1" as="geometry">
            <mxPoint x="2020" y="850" as="sourcePoint" />
            <mxPoint x="2070" y="800" as="targetPoint" />
          </mxGeometry>
        </mxCell>
        <mxCell id="poZD9N2d5XFR-r68YqAx-223" value="&amp;lt;&amp;lt;includes&amp;gt;&amp;gt;" style="edgeLabel;html=1;align=center;verticalAlign=middle;resizable=0;points=[];" vertex="1" connectable="0" parent="poZD9N2d5XFR-r68YqAx-222">
          <mxGeometry x="-0.0164" relative="1" as="geometry">
            <mxPoint as="offset" />
          </mxGeometry>
        </mxCell>
        <mxCell id="poZD9N2d5XFR-r68YqAx-224" value="Notify Confirmation" style="ellipse;whiteSpace=wrap;html=1;" vertex="1" parent="1">
          <mxGeometry x="1750" y="1430" width="140" height="70" as="geometry" />
        </mxCell>
        <mxCell id="poZD9N2d5XFR-r68YqAx-225" value="Save as Draft" style="ellipse;whiteSpace=wrap;html=1;" vertex="1" parent="1">
          <mxGeometry x="1640" y="970" width="140" height="70" as="geometry" />
        </mxCell>
        <mxCell id="poZD9N2d5XFR-r68YqAx-226" value="" style="endArrow=classic;html=1;rounded=0;exitX=0.5;exitY=0;exitDx=0;exitDy=0;entryX=0;entryY=1;entryDx=0;entryDy=0;dashed=1;" edge="1" parent="1" source="poZD9N2d5XFR-r68YqAx-204" target="poZD9N2d5XFR-r68YqAx-203">
          <mxGeometry width="50" height="50" relative="1" as="geometry">
            <mxPoint x="1870" y="1440" as="sourcePoint" />
            <mxPoint x="1920" y="1390" as="targetPoint" />
          </mxGeometry>
        </mxCell>
        <mxCell id="poZD9N2d5XFR-r68YqAx-227" value="&amp;lt;&amp;lt;includes&amp;gt;&amp;gt;" style="edgeLabel;html=1;align=center;verticalAlign=middle;resizable=0;points=[];" vertex="1" connectable="0" parent="poZD9N2d5XFR-r68YqAx-226">
          <mxGeometry x="-0.0567" y="3" relative="1" as="geometry">
            <mxPoint y="-1" as="offset" />
          </mxGeometry>
        </mxCell>
        <mxCell id="poZD9N2d5XFR-r68YqAx-228" value="" style="endArrow=classic;html=1;rounded=0;exitX=0.5;exitY=0;exitDx=0;exitDy=0;entryX=1;entryY=1;entryDx=0;entryDy=0;dashed=1;" edge="1" parent="1" source="poZD9N2d5XFR-r68YqAx-206" target="poZD9N2d5XFR-r68YqAx-203">
          <mxGeometry width="50" height="50" relative="1" as="geometry">
            <mxPoint x="1870" y="1590" as="sourcePoint" />
            <mxPoint x="1920" y="1540" as="targetPoint" />
          </mxGeometry>
        </mxCell>
        <mxCell id="poZD9N2d5XFR-r68YqAx-229" value="&amp;lt;&amp;lt;includes&amp;gt;&amp;gt;" style="edgeLabel;html=1;align=center;verticalAlign=middle;resizable=0;points=[];" vertex="1" connectable="0" parent="poZD9N2d5XFR-r68YqAx-228">
          <mxGeometry x="0.0156" y="-1" relative="1" as="geometry">
            <mxPoint as="offset" />
          </mxGeometry>
        </mxCell>
        <mxCell id="poZD9N2d5XFR-r68YqAx-230" value="" style="endArrow=classic;html=1;rounded=0;entryX=0;entryY=1;entryDx=0;entryDy=0;dashed=1;" edge="1" parent="1" source="poZD9N2d5XFR-r68YqAx-225" target="poZD9N2d5XFR-r68YqAx-194">
          <mxGeometry width="50" height="50" relative="1" as="geometry">
            <mxPoint x="1870" y="560" as="sourcePoint" />
            <mxPoint x="1920" y="510" as="targetPoint" />
          </mxGeometry>
        </mxCell>
        <mxCell id="poZD9N2d5XFR-r68YqAx-231" value="&amp;lt;&amp;lt;includes&amp;gt;&amp;gt;" style="edgeLabel;html=1;align=center;verticalAlign=middle;resizable=0;points=[];" vertex="1" connectable="0" parent="poZD9N2d5XFR-r68YqAx-230">
          <mxGeometry x="0.0155" y="4" relative="1" as="geometry">
            <mxPoint as="offset" />
          </mxGeometry>
        </mxCell>
        <mxCell id="poZD9N2d5XFR-r68YqAx-232" value="" style="endArrow=classic;html=1;rounded=0;exitX=1;exitY=0.5;exitDx=0;exitDy=0;entryX=0.5;entryY=0;entryDx=0;entryDy=0;dashed=1;" edge="1" parent="1" source="poZD9N2d5XFR-r68YqAx-194" target="poZD9N2d5XFR-r68YqAx-196">
          <mxGeometry width="50" height="50" relative="1" as="geometry">
            <mxPoint x="1980" y="560" as="sourcePoint" />
            <mxPoint x="2030" y="510" as="targetPoint" />
          </mxGeometry>
        </mxCell>
        <mxCell id="poZD9N2d5XFR-r68YqAx-233" value="&amp;lt;&amp;lt;includes&amp;gt;&amp;gt;" style="edgeLabel;html=1;align=center;verticalAlign=middle;resizable=0;points=[];" vertex="1" connectable="0" parent="poZD9N2d5XFR-r68YqAx-232">
          <mxGeometry x="-0.1172" y="1" relative="1" as="geometry">
            <mxPoint as="offset" />
          </mxGeometry>
        </mxCell>
        <mxCell id="poZD9N2d5XFR-r68YqAx-234" value="" style="endArrow=classic;html=1;rounded=0;exitX=1;exitY=1;exitDx=0;exitDy=0;entryX=0.5;entryY=0;entryDx=0;entryDy=0;dashed=1;" edge="1" parent="1" source="poZD9N2d5XFR-r68YqAx-194" target="poZD9N2d5XFR-r68YqAx-198">
          <mxGeometry width="50" height="50" relative="1" as="geometry">
            <mxPoint x="1980" y="600" as="sourcePoint" />
            <mxPoint x="2030" y="550" as="targetPoint" />
          </mxGeometry>
        </mxCell>
        <mxCell id="poZD9N2d5XFR-r68YqAx-235" value="&amp;lt;&amp;lt;includes&amp;gt;&amp;gt;" style="edgeLabel;html=1;align=center;verticalAlign=middle;resizable=0;points=[];" vertex="1" connectable="0" parent="poZD9N2d5XFR-r68YqAx-234">
          <mxGeometry x="-0.0735" y="-4" relative="1" as="geometry">
            <mxPoint as="offset" />
          </mxGeometry>
        </mxCell>
        <mxCell id="poZD9N2d5XFR-r68YqAx-236" value="" style="endArrow=classic;html=1;rounded=0;exitX=0.5;exitY=1;exitDx=0;exitDy=0;entryX=0.5;entryY=0;entryDx=0;entryDy=0;dashed=1;" edge="1" parent="1" source="poZD9N2d5XFR-r68YqAx-194" target="poZD9N2d5XFR-r68YqAx-205">
          <mxGeometry width="50" height="50" relative="1" as="geometry">
            <mxPoint x="2010" y="520" as="sourcePoint" />
            <mxPoint x="2060" y="470" as="targetPoint" />
          </mxGeometry>
        </mxCell>
        <mxCell id="poZD9N2d5XFR-r68YqAx-237" value="&amp;lt;&amp;lt;includes&amp;gt;&amp;gt;" style="edgeLabel;html=1;align=center;verticalAlign=middle;resizable=0;points=[];" vertex="1" connectable="0" parent="poZD9N2d5XFR-r68YqAx-236">
          <mxGeometry x="-0.065" y="4" relative="1" as="geometry">
            <mxPoint as="offset" />
          </mxGeometry>
        </mxCell>
        <mxCell id="poZD9N2d5XFR-r68YqAx-238" value="" style="endArrow=none;html=1;rounded=0;exitX=1;exitY=0.5;exitDx=0;exitDy=0;entryX=0;entryY=0.5;entryDx=0;entryDy=0;dashed=1;startArrow=classic;startFill=1;" edge="1" parent="1" source="poZD9N2d5XFR-r68YqAx-225" target="poZD9N2d5XFR-r68YqAx-203">
          <mxGeometry width="50" height="50" relative="1" as="geometry">
            <mxPoint x="2030" y="1190" as="sourcePoint" />
            <mxPoint x="2080" y="1140" as="targetPoint" />
          </mxGeometry>
        </mxCell>
        <mxCell id="poZD9N2d5XFR-r68YqAx-239" value="&amp;lt;&amp;lt;includes&amp;gt;&amp;gt;" style="edgeLabel;html=1;align=center;verticalAlign=middle;resizable=0;points=[];" vertex="1" connectable="0" parent="poZD9N2d5XFR-r68YqAx-238">
          <mxGeometry x="0.2597" y="-2" relative="1" as="geometry">
            <mxPoint as="offset" />
          </mxGeometry>
        </mxCell>
        <mxCell id="poZD9N2d5XFR-r68YqAx-240" value="" style="endArrow=classic;html=1;rounded=0;exitX=0.5;exitY=0;exitDx=0;exitDy=0;dashed=1;" edge="1" parent="1" source="poZD9N2d5XFR-r68YqAx-207" target="poZD9N2d5XFR-r68YqAx-206">
          <mxGeometry width="50" height="50" relative="1" as="geometry">
            <mxPoint x="2030" y="1510" as="sourcePoint" />
            <mxPoint x="2080" y="1460" as="targetPoint" />
          </mxGeometry>
        </mxCell>
        <mxCell id="poZD9N2d5XFR-r68YqAx-241" value="&amp;lt;&amp;lt;includes&amp;gt;&amp;gt;" style="edgeLabel;html=1;align=center;verticalAlign=middle;resizable=0;points=[];" vertex="1" connectable="0" parent="poZD9N2d5XFR-r68YqAx-240">
          <mxGeometry x="-0.0229" y="-1" relative="1" as="geometry">
            <mxPoint as="offset" />
          </mxGeometry>
        </mxCell>
        <mxCell id="poZD9N2d5XFR-r68YqAx-242" value="" style="endArrow=classic;html=1;rounded=0;exitX=0.5;exitY=0;exitDx=0;exitDy=0;entryX=0.5;entryY=1;entryDx=0;entryDy=0;dashed=1;" edge="1" parent="1" source="poZD9N2d5XFR-r68YqAx-208" target="poZD9N2d5XFR-r68YqAx-207">
          <mxGeometry width="50" height="50" relative="1" as="geometry">
            <mxPoint x="2020" y="1480" as="sourcePoint" />
            <mxPoint x="2070" y="1430" as="targetPoint" />
          </mxGeometry>
        </mxCell>
        <mxCell id="poZD9N2d5XFR-r68YqAx-243" value="&amp;lt;&amp;lt;includes&amp;gt;&amp;gt;" style="edgeLabel;html=1;align=center;verticalAlign=middle;resizable=0;points=[];" vertex="1" connectable="0" parent="poZD9N2d5XFR-r68YqAx-242">
          <mxGeometry x="0.0343" relative="1" as="geometry">
            <mxPoint as="offset" />
          </mxGeometry>
        </mxCell>
        <mxCell id="poZD9N2d5XFR-r68YqAx-244" value="" style="endArrow=none;html=1;rounded=0;entryX=0;entryY=0.5;entryDx=0;entryDy=0;exitX=0.5;exitY=0.5;exitDx=0;exitDy=0;exitPerimeter=0;" edge="1" parent="1" source="poZD9N2d5XFR-r68YqAx-193" target="poZD9N2d5XFR-r68YqAx-208">
          <mxGeometry width="50" height="50" relative="1" as="geometry">
            <mxPoint x="2110" y="1500" as="sourcePoint" />
            <mxPoint x="2160" y="1450" as="targetPoint" />
          </mxGeometry>
        </mxCell>
        <mxCell id="poZD9N2d5XFR-r68YqAx-245" value="" style="endArrow=none;html=1;rounded=0;exitX=0.5;exitY=0;exitDx=0;exitDy=0;exitPerimeter=0;entryX=0;entryY=0.5;entryDx=0;entryDy=0;" edge="1" parent="1" source="poZD9N2d5XFR-r68YqAx-190" target="poZD9N2d5XFR-r68YqAx-194">
          <mxGeometry width="50" height="50" relative="1" as="geometry">
            <mxPoint x="2110" y="740" as="sourcePoint" />
            <mxPoint x="2160" y="690" as="targetPoint" />
          </mxGeometry>
        </mxCell>
        <mxCell id="poZD9N2d5XFR-r68YqAx-246" value="" style="endArrow=none;html=1;rounded=0;exitX=1;exitY=1;exitDx=0;exitDy=0;exitPerimeter=0;entryX=0;entryY=0.5;entryDx=0;entryDy=0;edgeStyle=orthogonalEdgeStyle;" edge="1" parent="1" source="poZD9N2d5XFR-r68YqAx-190" target="poZD9N2d5XFR-r68YqAx-225">
          <mxGeometry width="50" height="50" relative="1" as="geometry">
            <mxPoint x="2110" y="930" as="sourcePoint" />
            <mxPoint x="2160" y="880" as="targetPoint" />
            <Array as="points">
              <mxPoint x="1510" y="720" />
              <mxPoint x="1510" y="1005" />
            </Array>
          </mxGeometry>
        </mxCell>
        <mxCell id="poZD9N2d5XFR-r68YqAx-247" value="" style="endArrow=none;html=1;rounded=0;exitX=0;exitY=0.5;exitDx=0;exitDy=0;entryX=0;entryY=1;entryDx=0;entryDy=0;entryPerimeter=0;edgeStyle=orthogonalEdgeStyle;" edge="1" parent="1" source="poZD9N2d5XFR-r68YqAx-224" target="poZD9N2d5XFR-r68YqAx-190">
          <mxGeometry width="50" height="50" relative="1" as="geometry">
            <mxPoint x="2110" y="1180" as="sourcePoint" />
            <mxPoint x="2160" y="1130" as="targetPoint" />
            <Array as="points">
              <mxPoint x="1420" y="1465" />
            </Array>
          </mxGeometry>
        </mxCell>
        <mxCell id="poZD9N2d5XFR-r68YqAx-248" value="" style="endArrow=none;html=1;rounded=0;exitX=0;exitY=0.5;exitDx=0;exitDy=0;entryX=0;entryY=1;entryDx=0;entryDy=0;entryPerimeter=0;edgeStyle=orthogonalEdgeStyle;" edge="1" parent="1" source="poZD9N2d5XFR-r68YqAx-206" target="poZD9N2d5XFR-r68YqAx-190">
          <mxGeometry width="50" height="50" relative="1" as="geometry">
            <mxPoint x="2110" y="1150" as="sourcePoint" />
            <mxPoint x="2160" y="1100" as="targetPoint" />
            <Array as="points">
              <mxPoint x="1460" y="1265" />
              <mxPoint x="1460" y="720" />
            </Array>
          </mxGeometry>
        </mxCell>
        <mxCell id="poZD9N2d5XFR-r68YqAx-249" value="" style="endArrow=none;html=1;rounded=0;exitX=0;exitY=0.5;exitDx=0;exitDy=0;edgeStyle=orthogonalEdgeStyle;" edge="1" parent="1" source="poZD9N2d5XFR-r68YqAx-207">
          <mxGeometry width="50" height="50" relative="1" as="geometry">
            <mxPoint x="2110" y="1190" as="sourcePoint" />
            <mxPoint x="1420" y="730" as="targetPoint" />
            <Array as="points">
              <mxPoint x="1440" y="1405" />
              <mxPoint x="1440" y="730" />
            </Array>
          </mxGeometry>
        </mxCell>
        <mxCell id="poZD9N2d5XFR-r68YqAx-250" value="" style="endArrow=none;html=1;rounded=0;exitX=0;exitY=0.5;exitDx=0;exitDy=0;entryX=1;entryY=1;entryDx=0;entryDy=0;entryPerimeter=0;edgeStyle=orthogonalEdgeStyle;" edge="1" parent="1" source="poZD9N2d5XFR-r68YqAx-204" target="poZD9N2d5XFR-r68YqAx-190">
          <mxGeometry width="50" height="50" relative="1" as="geometry">
            <mxPoint x="2110" y="1180" as="sourcePoint" />
            <mxPoint x="2160" y="1130" as="targetPoint" />
            <Array as="points">
              <mxPoint x="1480" y="1185" />
              <mxPoint x="1480" y="720" />
            </Array>
          </mxGeometry>
        </mxCell>
        <mxCell id="poZD9N2d5XFR-r68YqAx-251" value="" style="endArrow=classic;html=1;rounded=0;exitX=1;exitY=0.5;exitDx=0;exitDy=0;entryX=0;entryY=0;entryDx=0;entryDy=0;dashed=1;" edge="1" parent="1" source="poZD9N2d5XFR-r68YqAx-224" target="poZD9N2d5XFR-r68YqAx-208">
          <mxGeometry width="50" height="50" relative="1" as="geometry">
            <mxPoint x="2110" y="1470" as="sourcePoint" />
            <mxPoint x="2160" y="1420" as="targetPoint" />
          </mxGeometry>
        </mxCell>
        <mxCell id="poZD9N2d5XFR-r68YqAx-252" value="&amp;lt;&amp;lt;includes&amp;gt;&amp;gt;" style="edgeLabel;html=1;align=center;verticalAlign=middle;resizable=0;points=[];" vertex="1" connectable="0" parent="poZD9N2d5XFR-r68YqAx-251">
          <mxGeometry x="-0.0733" y="3" relative="1" as="geometry">
            <mxPoint x="1" as="offset" />
          </mxGeometry>
        </mxCell>
        <mxCell id="poZD9N2d5XFR-r68YqAx-253" value="Search Inventory" style="ellipse;whiteSpace=wrap;html=1;" vertex="1" parent="1">
          <mxGeometry x="730" y="390" width="130" height="70" as="geometry" />
        </mxCell>
        <mxCell id="poZD9N2d5XFR-r68YqAx-254" style="rounded=0;orthogonalLoop=1;jettySize=auto;html=1;dashed=1;exitX=0;exitY=0.5;exitDx=0;exitDy=0;entryX=1;entryY=0.5;entryDx=0;entryDy=0;" edge="1" parent="1" source="poZD9N2d5XFR-r68YqAx-253" target="02z2UqMDENTXHO_L2J_l-140">
          <mxGeometry relative="1" as="geometry">
            <mxPoint x="716" y="470" as="sourcePoint" />
            <mxPoint x="575" y="435" as="targetPoint" />
          </mxGeometry>
        </mxCell>
        <mxCell id="poZD9N2d5XFR-r68YqAx-255" value="&amp;lt;&amp;lt;includes&amp;gt;&amp;gt;" style="edgeLabel;html=1;align=center;verticalAlign=middle;resizable=0;points=[];" vertex="1" connectable="0" parent="poZD9N2d5XFR-r68YqAx-254">
          <mxGeometry x="0.2002" relative="1" as="geometry">
            <mxPoint x="22" y="2" as="offset" />
          </mxGeometry>
        </mxCell>
        <mxCell id="poZD9N2d5XFR-r68YqAx-259" style="edgeStyle=none;curved=1;rounded=0;orthogonalLoop=1;jettySize=auto;html=1;entryX=0;entryY=0.5;entryDx=0;entryDy=0;fontSize=12;startSize=8;endSize=8;endArrow=none;startFill=0;" edge="1" parent="1" source="02z2UqMDENTXHO_L2J_l-1" target="02z2UqMDENTXHO_L2J_l-150">
          <mxGeometry relative="1" as="geometry" />
        </mxCell>
        <mxCell id="poZD9N2d5XFR-r68YqAx-266" style="edgeStyle=none;curved=1;rounded=0;orthogonalLoop=1;jettySize=auto;html=1;fontSize=12;startSize=8;endSize=8;endArrow=none;startFill=0;exitX=0;exitY=0.5;exitDx=0;exitDy=0;" edge="1" parent="1" source="poZD9N2d5XFR-r68YqAx-260" target="02z2UqMDENTXHO_L2J_l-1">
          <mxGeometry relative="1" as="geometry" />
        </mxCell>
        <mxCell id="poZD9N2d5XFR-r68YqAx-260" value="Track Expiry Dates " style="ellipse;whiteSpace=wrap;html=1;" vertex="1" parent="1">
          <mxGeometry x="445" y="690" width="130" height="70" as="geometry" />
        </mxCell>
        <mxCell id="poZD9N2d5XFR-r68YqAx-264" style="edgeStyle=none;curved=1;rounded=0;orthogonalLoop=1;jettySize=auto;html=1;fontSize=12;startSize=8;endSize=8;dashed=1;" edge="1" parent="1" source="poZD9N2d5XFR-r68YqAx-263" target="poZD9N2d5XFR-r68YqAx-260">
          <mxGeometry relative="1" as="geometry" />
        </mxCell>
        <mxCell id="poZD9N2d5XFR-r68YqAx-265" value="&amp;lt;&amp;lt;includes&amp;gt;&amp;gt;" style="edgeLabel;html=1;align=center;verticalAlign=middle;resizable=0;points=[];fontSize=12;" vertex="1" connectable="0" parent="poZD9N2d5XFR-r68YqAx-264">
          <mxGeometry x="0.3806" y="2" relative="1" as="geometry">
            <mxPoint x="27" y="-7" as="offset" />
          </mxGeometry>
        </mxCell>
        <mxCell id="poZD9N2d5XFR-r68YqAx-263" value="Request chemical disposal " style="ellipse;whiteSpace=wrap;html=1;" vertex="1" parent="1">
          <mxGeometry x="760" y="690" width="130" height="70" as="geometry" />
        </mxCell>
        <mxCell id="poZD9N2d5XFR-r68YqAx-267" value="Receive Low Stock Alert" style="ellipse;whiteSpace=wrap;html=1;" vertex="1" parent="1">
          <mxGeometry x="440" y="780" width="130" height="70" as="geometry" />
        </mxCell>
        <mxCell id="poZD9N2d5XFR-r68YqAx-268" style="edgeStyle=none;curved=1;rounded=0;orthogonalLoop=1;jettySize=auto;html=1;entryX=0.833;entryY=0.887;entryDx=0;entryDy=0;entryPerimeter=0;fontSize=12;startSize=8;endSize=8;endArrow=none;startFill=0;exitX=0;exitY=0.5;exitDx=0;exitDy=0;" edge="1" parent="1" source="poZD9N2d5XFR-r68YqAx-267" target="02z2UqMDENTXHO_L2J_l-1">
          <mxGeometry relative="1" as="geometry" />
        </mxCell>
        <mxCell id="poZD9N2d5XFR-r68YqAx-269" value="" style="rounded=0;whiteSpace=wrap;html=1;" vertex="1" parent="1">
          <mxGeometry x="2577.5" y="180" width="872.5" height="850" as="geometry" />
        </mxCell>
        <mxCell id="poZD9N2d5XFR-r68YqAx-270" value="Equipment and Resource Scheduling" style="text;html=1;align=center;verticalAlign=middle;whiteSpace=wrap;rounded=0;fontSize=19;" vertex="1" parent="1">
          <mxGeometry x="2850" y="200" width="320" height="30" as="geometry" />
        </mxCell>
        <mxCell id="poZD9N2d5XFR-r68YqAx-293" style="edgeStyle=none;curved=1;rounded=0;orthogonalLoop=1;jettySize=auto;html=1;fontSize=12;startSize=8;endSize=8;entryX=0;entryY=0.5;entryDx=0;entryDy=0;endArrow=none;startFill=0;" edge="1" parent="1" source="poZD9N2d5XFR-r68YqAx-276" target="poZD9N2d5XFR-r68YqAx-289">
          <mxGeometry relative="1" as="geometry" />
        </mxCell>
        <mxCell id="poZD9N2d5XFR-r68YqAx-276" value="Lab Manager" style="shape=umlActor;verticalLabelPosition=bottom;verticalAlign=top;html=1;" vertex="1" parent="1">
          <mxGeometry x="2525" y="750" width="30" height="60" as="geometry" />
        </mxCell>
        <mxCell id="poZD9N2d5XFR-r68YqAx-277" value="Researchers&amp;nbsp;" style="shape=umlActor;verticalLabelPosition=bottom;verticalAlign=top;html=1;" vertex="1" parent="1">
          <mxGeometry x="2525" y="355" width="30" height="60" as="geometry" />
        </mxCell>
        <mxCell id="poZD9N2d5XFR-r68YqAx-283" style="edgeStyle=none;curved=1;rounded=0;orthogonalLoop=1;jettySize=auto;html=1;fontSize=12;startSize=8;endSize=8;endArrow=none;startFill=0;" edge="1" parent="1" source="poZD9N2d5XFR-r68YqAx-281" target="poZD9N2d5XFR-r68YqAx-277">
          <mxGeometry relative="1" as="geometry" />
        </mxCell>
        <mxCell id="poZD9N2d5XFR-r68YqAx-286" style="edgeStyle=none;curved=1;rounded=0;orthogonalLoop=1;jettySize=auto;html=1;fontSize=12;startSize=8;endSize=8;dashed=1;" edge="1" parent="1" source="poZD9N2d5XFR-r68YqAx-281" target="poZD9N2d5XFR-r68YqAx-282">
          <mxGeometry relative="1" as="geometry" />
        </mxCell>
        <mxCell id="poZD9N2d5XFR-r68YqAx-287" value="&amp;lt;&amp;lt;extends&amp;gt;&amp;gt;" style="edgeLabel;html=1;align=center;verticalAlign=middle;resizable=0;points=[];fontSize=12;" vertex="1" connectable="0" parent="poZD9N2d5XFR-r68YqAx-286">
          <mxGeometry x="0.2267" relative="1" as="geometry">
            <mxPoint y="-11" as="offset" />
          </mxGeometry>
        </mxCell>
        <mxCell id="poZD9N2d5XFR-r68YqAx-281" value="Check Equipment Schedule" style="ellipse;whiteSpace=wrap;html=1;" vertex="1" parent="1">
          <mxGeometry x="3050" y="345" width="135" height="80" as="geometry" />
        </mxCell>
        <mxCell id="poZD9N2d5XFR-r68YqAx-282" value="Book Equipment " style="ellipse;whiteSpace=wrap;html=1;" vertex="1" parent="1">
          <mxGeometry x="3057.5" y="490" width="120" height="70" as="geometry" />
        </mxCell>
        <mxCell id="poZD9N2d5XFR-r68YqAx-284" value="View Equipment " style="ellipse;whiteSpace=wrap;html=1;" vertex="1" parent="1">
          <mxGeometry x="2872.5" y="250" width="135" height="80" as="geometry" />
        </mxCell>
        <mxCell id="poZD9N2d5XFR-r68YqAx-288" style="edgeStyle=none;curved=1;rounded=0;orthogonalLoop=1;jettySize=auto;html=1;entryX=0.727;entryY=0.387;entryDx=0;entryDy=0;entryPerimeter=0;fontSize=12;startSize=8;endSize=8;endArrow=none;startFill=0;" edge="1" parent="1" source="poZD9N2d5XFR-r68YqAx-284" target="poZD9N2d5XFR-r68YqAx-277">
          <mxGeometry relative="1" as="geometry" />
        </mxCell>
        <mxCell id="poZD9N2d5XFR-r68YqAx-289" value="Flag Breakdowns" style="ellipse;whiteSpace=wrap;html=1;" vertex="1" parent="1">
          <mxGeometry x="2872.5" y="660" width="135" height="80" as="geometry" />
        </mxCell>
        <mxCell id="poZD9N2d5XFR-r68YqAx-294" style="edgeStyle=none;curved=1;rounded=0;orthogonalLoop=1;jettySize=auto;html=1;fontSize=12;startSize=8;endSize=8;endArrow=none;startFill=0;" edge="1" parent="1" source="poZD9N2d5XFR-r68YqAx-290" target="poZD9N2d5XFR-r68YqAx-276">
          <mxGeometry relative="1" as="geometry" />
        </mxCell>
        <mxCell id="poZD9N2d5XFR-r68YqAx-290" value="Approve Book Requests" style="ellipse;whiteSpace=wrap;html=1;" vertex="1" parent="1">
          <mxGeometry x="2872.5" y="780" width="135" height="80" as="geometry" />
        </mxCell>
        <mxCell id="poZD9N2d5XFR-r68YqAx-291" value="Cancel a booking" style="ellipse;whiteSpace=wrap;html=1;" vertex="1" parent="1">
          <mxGeometry x="3240" y="400" width="120" height="70" as="geometry" />
        </mxCell>
        <mxCell id="poZD9N2d5XFR-r68YqAx-292" value="Receive a booking reminder" style="ellipse;whiteSpace=wrap;html=1;" vertex="1" parent="1">
          <mxGeometry x="3270" y="515" width="120" height="70" as="geometry" />
        </mxCell>
        <mxCell id="poZD9N2d5XFR-r68YqAx-295" style="edgeStyle=none;curved=1;rounded=0;orthogonalLoop=1;jettySize=auto;html=1;entryX=0.952;entryY=0.346;entryDx=0;entryDy=0;entryPerimeter=0;fontSize=12;startSize=8;endSize=8;dashed=1;" edge="1" parent="1" source="poZD9N2d5XFR-r68YqAx-291" target="poZD9N2d5XFR-r68YqAx-282">
          <mxGeometry relative="1" as="geometry" />
        </mxCell>
        <mxCell id="poZD9N2d5XFR-r68YqAx-296" value="&amp;lt;&amp;lt;includes&amp;gt;&amp;gt;" style="edgeLabel;html=1;align=center;verticalAlign=middle;resizable=0;points=[];fontSize=12;" vertex="1" connectable="0" parent="poZD9N2d5XFR-r68YqAx-295">
          <mxGeometry x="0.092" y="1" relative="1" as="geometry">
            <mxPoint as="offset" />
          </mxGeometry>
        </mxCell>
        <mxCell id="poZD9N2d5XFR-r68YqAx-297" style="edgeStyle=none;curved=1;rounded=0;orthogonalLoop=1;jettySize=auto;html=1;entryX=0.952;entryY=0.346;entryDx=0;entryDy=0;entryPerimeter=0;fontSize=12;startSize=8;endSize=8;dashed=1;" edge="1" parent="1" source="poZD9N2d5XFR-r68YqAx-292">
          <mxGeometry relative="1" as="geometry">
            <mxPoint x="3269" y="470" as="sourcePoint" />
            <mxPoint x="3182" y="524" as="targetPoint" />
          </mxGeometry>
        </mxCell>
        <mxCell id="poZD9N2d5XFR-r68YqAx-298" value="&amp;lt;&amp;lt;includes&amp;gt;&amp;gt;" style="edgeLabel;html=1;align=center;verticalAlign=middle;resizable=0;points=[];fontSize=12;" vertex="1" connectable="0" parent="poZD9N2d5XFR-r68YqAx-297">
          <mxGeometry x="0.092" y="1" relative="1" as="geometry">
            <mxPoint as="offset" />
          </mxGeometry>
        </mxCell>
      </root>
    </mxGraphModel>
  </diagram>
</mxfile>
